<svg width="70" height="70" viewBox="0 0 70 70" fill="none" xmlns="http://www.w3.org/2000/svg">
<path fill-rule="evenodd" clip-rule="evenodd" d="M21.0699 17.1911C21.3013 17.2698 21.6582 17.4536 21.8631 17.5849C23.1187 18.4118 26.6153 22.8548 27.7589 25.0731C28.4132 26.3398 28.6311 27.2782 28.4264 27.9739C28.2147 28.7221 27.8644 29.116 26.2981 30.3694C25.6701 30.8746 25.0818 31.3932 24.9893 31.5311C24.7514 31.8723 24.5597 32.5417 24.5597 33.0143C24.5664 34.1102 25.2802 36.099 26.2187 37.628C26.9457 38.8158 28.2477 40.3384 29.5368 41.5067C31.0503 42.8849 32.3854 43.8234 33.8924 44.5651C35.829 45.5231 37.0121 45.7661 37.878 45.3656C38.0962 45.2672 38.3274 45.1361 38.4001 45.077C38.4661 45.0179 38.9752 44.4009 39.5305 43.7185C40.6011 42.3795 40.8456 42.163 41.5793 41.9137C42.5112 41.5986 43.4632 41.6839 44.4214 42.1695C45.1486 42.5437 46.7348 43.5215 47.7593 44.2302C49.1076 45.1689 51.9894 47.5053 52.3794 47.9712C53.0667 48.8113 53.1857 49.8874 52.7231 51.0754C52.2338 52.3288 50.3304 54.6785 49.0018 55.6826C47.7988 56.5883 46.9463 56.936 45.8226 56.9885C44.8974 57.0346 44.5141 56.9557 43.3307 56.4701C34.051 52.6702 26.6418 46.9999 20.7592 39.2097C17.6857 35.1408 15.3459 30.9206 13.7464 26.5433C12.8145 23.9902 12.7682 22.8811 13.5349 21.5751C13.8654 21.0239 15.2732 19.6588 16.2977 18.8975C18.0031 17.6374 18.7896 17.1714 19.4174 17.0402C19.847 16.9483 20.5938 17.0205 21.0699 17.1911Z" fill="white"/>
<path d="M42.9609 17C37.4683 17 33 20.7848 33 25.4375C33 27.4029 33.8102 29.3074 35.2848 30.8169C35.5766 31.9721 35.2224 33.196 34.3435 34.0397C33.976 34.3926 34.2359 34.9999 34.7578 34.9999C36.4275 34.9999 38.0371 34.3721 39.233 33.2647C40.4163 33.6701 41.6683 33.875 42.9609 33.875C48.4535 33.875 52.9999 30.0902 52.9999 25.4375C52.9999 20.7848 48.4535 17 42.9609 17ZM38.3515 27.125C37.3823 27.125 36.5937 26.368 36.5937 25.4375C36.5937 24.507 37.3823 23.75 38.3515 23.75C39.3208 23.75 40.1094 24.507 40.1094 25.4375C40.1094 26.368 39.3208 27.125 38.3515 27.125ZM43.039 27.125C42.0697 27.125 41.2812 26.368 41.2812 25.4375C41.2812 24.507 42.0697 23.75 43.039 23.75C44.0083 23.75 44.7968 24.507 44.7968 25.4375C44.7968 26.368 44.0083 27.125 43.039 27.125ZM47.7265 27.125C46.7572 27.125 45.9687 26.368 45.9687 25.4375C45.9687 24.507 46.7572 23.75 47.7265 23.75C48.6958 23.75 49.4843 24.507 49.4843 25.4375C49.4843 26.368 48.6958 27.125 47.7265 27.125Z" fill="white"/>
</svg>
